<svg xmlns="http://www.w3.org/2000/svg" xmlns:xlink="http://www.w3.org/1999/xlink" width="200" height="200" class="icon" p-id="3098" t="1607741923497" version="1.1" viewBox="0 0 1024 1024"><defs><style type="text/css"/></defs><path d="M832 128v768H256V128h576m64-64H192v896h704V64z" p-id="3099"/><path d="M161.3 296.2v-0.2H320v-40H161.3c-35.5 0-64.3 28.7-64.3 64s28.8 64 64.3 64h90v-40h-90v-0.2c-13.3 0-24.1-10.7-24.1-23.8 0-13.1 10.8-23.8 24.1-23.8zM161.3 488.2v-0.2H320v-40H161.3c-35.5 0-64.3 28.7-64.3 64s28.8 64 64.3 64h90v-40h-90v-0.2c-13.3 0-24.1-10.7-24.1-23.8 0-13.1 10.8-23.8 24.1-23.8zM161.3 680.2v-0.2H320v-40H161.3c-35.5 0-64.3 28.7-64.3 64s28.8 64 64.3 64h90v-40h-90v-0.2c-13.3 0-24.1-10.7-24.1-23.8 0-13.1 10.8-23.8 24.1-23.8z" p-id="3100"/><path d="M320 277m-32 0a32 32 0 1 0 64 0 32 32 0 1 0-64 0Z" p-id="3101"/><path d="M320 469m-32 0a32 32 0 1 0 64 0 32 32 0 1 0-64 0Z" p-id="3102"/><path d="M320 662m-32 0a32 32 0 1 0 64 0 32 32 0 1 0-64 0Z" p-id="3103"/><path d="M384 256h385v40H384zM384 384h385v40H384zM384 512h385v40H384zM384 640h256v40H384z" p-id="3104"/></svg>